<svg width="95" height="95" viewBox="0 0 95 95" fill="none" xmlns="http://www.w3.org/2000/svg">
<rect width="95" height="95" rx="47.5" fill="#FF7338"/>
<path d="M28.72 50.8683C31.1851 44.9062 33.2262 38.8843 35.4429 32.9347C36.7708 29.3665 40.0308 28.0477 43.1454 29.838C44.6278 30.6916 45.2395 32.1519 45.6059 33.7851C47.0544 40.2308 48.5181 46.6756 49.997 53.1193C50.05 53.3519 50.165 53.572 50.3861 54.152C51.6822 50.7096 52.8739 47.5407 54.2109 43.985C56.3034 48.3156 58.8775 51.9074 59.9313 56.2992C60.5612 58.9211 59.6285 61.2255 58.7745 63.5676C57.5465 66.9582 56.3352 70.3566 55.0739 73.733C53.9065 76.8548 51.9426 78.1783 48.9991 77.9158C46.4357 77.6863 44.6247 75.7671 43.9449 72.7286C42.5564 66.5181 41.1164 60.3185 39.6901 54.1174C39.6038 53.7433 39.4554 53.3834 39.2252 52.6776C38.2532 55.2838 37.3901 57.596 36.5285 59.9083C35.62 62.3321 34.7782 64.7811 33.8031 67.1751C32.8718 69.4559 31.0942 70.6914 28.7306 70.8329C26.367 70.9744 24.491 69.9432 23.2585 67.8164C22.909 67.1785 22.6538 66.4896 22.5014 65.773C21.278 60.4836 20.0939 55.1848 18.8856 49.8969C18.4192 47.8535 17.8862 45.81 17.4547 43.7666C17.0928 42.0375 16.7128 40.2502 17.5985 38.6013C18.5555 36.8219 20.3452 36.0219 22.3363 36.4274C24.1791 36.8015 25.3117 38.059 25.7659 39.9249C26.523 43.0152 27.2331 46.1165 27.9554 49.2163C28.075 49.7649 28.2113 50.3166 28.72 50.8683Z" fill="white"/>
<path d="M61.874 54.0774C59.8171 49.8152 57.126 46.0866 55.9298 41.5892C55.648 40.53 55.6051 39.4265 55.9574 38.3815C56.74 36.0641 57.5763 33.7657 58.408 31.4689C58.5611 31.0537 58.8674 30.6085 58.5029 30.2565C58.2088 29.9692 57.7539 30.2281 57.4308 30.3812C55.7552 31.1705 54.2817 30.6669 53.0718 29.4814C51.8955 28.329 51.7775 26.7978 52.2263 25.2192C52.5954 23.92 53.5665 23.2191 54.6876 22.7408C58.5167 21.1038 62.3825 19.5331 66.2131 17.8882C69.0451 16.6727 71.6091 17.7541 72.623 20.7486C73.9739 24.733 75.7046 28.58 77.2577 32.4918C78.0695 34.5439 77.4017 36.754 75.6954 37.7816C73.9387 38.833 71.9077 38.3278 70.4266 36.6087C70.0453 36.1652 69.9779 35.188 69.2519 35.3459C68.6928 35.4674 68.8399 36.3262 68.6392 36.8455C66.6006 42.3027 64.5176 47.7378 62.4361 53.1808C62.3473 53.4349 62.1497 53.6512 61.874 54.0774Z" fill="white"/>
</svg>
