<svg width="17" height="16" viewBox="0 0 17 16" fill="none" xmlns="http://www.w3.org/2000/svg">
<path d="M1 1H2.97369L4.55263 11.8889H12.8421M12.8421 11.8889C11.9701 11.8889 11.2632 12.5853 11.2632 13.4444C11.2632 14.3036 11.9701 15 12.8421 15C13.7141 15 14.4211 14.3036 14.4211 13.4444C14.4211 12.5853 13.7141 11.8889 12.8421 11.8889ZM4.21428 9.55556H13.6316L16 2.55556H3.19924M8.10527 13.4444C8.10527 14.3036 7.39835 15 6.52632 15C5.65429 15 4.94737 14.3036 4.94737 13.4444C4.94737 12.5853 5.65429 11.8889 6.52632 11.8889C7.39835 11.8889 8.10527 12.5853 8.10527 13.4444Z" stroke="white" stroke-width="1.5" stroke-linecap="round" stroke-linejoin="round"/>
</svg>
