<svg width="50" height="41" viewBox="0 0 50 41" fill="none" xmlns="http://www.w3.org/2000/svg">
<path d="M13.8792 34.188L12.0754 20.1651L24.4112 17.4302L25.8077 24.2963L26.8551 32.1516L13.8792 34.188Z" fill="#D9D9D9"/>
<path d="M6.39597 15.9974L43.6921 10.6932L42.0925 4.29492H37.7988L15.4883 6.48392L3.78601 8.58845L4.37528 10.6932L6.39597 15.9974Z" fill="#D9D9D9"/>
<path d="M24.3306 17.3849C17.8225 18.3473 16.0234 18.8654 11.942 19.4894C11.622 19.538 11.4047 19.8433 11.4625 20.1636C12.3864 25.2703 12.5405 29.2319 13.2837 34.1397C13.3336 34.4678 13.6452 34.6804 13.9598 34.6205C17.8654 33.8763 22.7635 33.3615 26.7073 32.6108C26.9818 32.5581 27.1792 32.3159 27.1755 32.0352C27.1051 26.6569 26.1361 22.4133 24.9723 17.8145C24.8996 17.5278 24.6254 17.3427 24.3306 17.3849ZM14.3344 33.3753C13.6959 28.9414 13.4998 25.1936 12.6979 20.5413C16.9637 19.8637 17.6104 19.5611 23.9845 18.6045C25.0371 22.7985 25.9012 26.7329 26.0158 31.5642C22.3763 32.2264 18.0141 32.7113 14.3344 33.3753Z" fill="black"/>
<path d="M20.8167 23.5934L18.977 21.075C18.8176 20.8567 18.4782 20.9168 18.4027 21.1766L17.5314 24.1752L14.5782 25.1542C14.3222 25.239 14.2742 25.5819 14.497 25.7342L17.0671 27.4931L17.0815 30.6167C17.0828 30.8873 17.3926 31.0391 17.6057 30.8734L20.0654 28.9619L23.0276 29.9133C23.2844 29.9958 23.5238 29.7469 23.4328 29.492L22.3828 26.5518L24.1991 24.0163C24.3565 23.7966 24.1947 23.4909 23.9253 23.4991L20.8167 23.5934Z" fill="black"/>
<path d="M40.9793 15.9149L27.7104 18.2677C27.3976 18.3227 27.1886 18.6229 27.2437 18.9366C27.2931 19.2173 27.5358 19.4144 27.8096 19.4144C27.904 19.4144 27.0351 19.5575 41.1793 17.0526C41.4921 16.9976 41.7011 16.6974 41.646 16.3837C41.5906 16.0692 41.2905 15.8623 40.9793 15.9149Z" fill="black"/>
<path d="M40.3604 22.2653C36.76 23.4384 33.0158 24.0629 29.2322 24.1208C28.9142 24.1261 28.6606 24.3887 28.6655 24.7077C28.6703 25.0237 28.9269 25.2765 29.2408 25.2765H29.2494C33.1484 25.2171 37.0057 24.5737 40.7155 23.3654C41.0178 23.2668 41.1833 22.9402 41.0852 22.637C40.9867 22.333 40.6638 22.169 40.3604 22.2653Z" fill="black"/>
<path d="M36.5371 27.9913C34.3848 28.7618 32.1366 29.1952 29.8544 29.2802C29.5371 29.2915 29.2891 29.5594 29.3007 29.8784C29.3124 30.1906 29.5674 30.4352 29.8753 30.4352C30.484 30.3658 33.2547 30.3931 36.9237 29.0793C37.223 28.9725 37.3792 28.6422 37.2724 28.3412C37.1657 28.041 36.8372 27.8815 36.5371 27.9913Z" fill="black"/>
<path d="M47.1592 34.6839C47.326 34.2017 47.8551 21.6102 42.4738 3.86746C42.3933 3.60167 42.1393 3.451 41.8741 3.47225C41.7252 3.45627 42.2732 3.41825 38.4308 3.72036C38.4148 3.61738 38.4058 3.51307 38.383 3.4115C37.9852 1.63654 36.5237 0.246072 34.8291 0.029376C33.018 -0.203121 31.177 0.968394 30.6369 2.69519C30.5014 3.12953 30.396 3.77153 30.4481 4.39265C29.2102 4.50438 27.9725 4.61725 26.7344 4.73933C26.7259 4.6955 26.7237 4.65054 26.714 4.60709C26.3162 2.83289 24.8546 1.44242 23.1596 1.22572C21.3459 0.995481 19.5068 2.16624 18.9674 3.89154C18.8298 4.33293 18.7244 4.98866 18.7832 5.62022C17.2069 5.81359 15.6412 6.02164 14.0838 6.24228C13.67 4.4914 12.2234 3.12351 10.5447 2.90963C8.73706 2.6809 6.89191 3.8494 6.35215 5.5747C6.19867 6.06697 6.09711 6.82277 6.20733 7.51688C2.61425 8.17685 2.56858 8.16859 2.41229 8.44574C1.83479 9.12705 1.19741 11.8736 1.12282 12.3167C-0.000737716 18.9936 -0.00596485 24.4332 0.000881372 31.5975C0.00213255 32.9454 0.171787 34.1194 1.49955 34.4457C4.88829 35.278 9.27052 39.0722 9.48545 39.654C9.61498 40.0044 10.1386 40.406 10.9336 40.3722C13.6242 41.6263 8.65598 39.7958 46.1474 36.8746C46.8807 36.8175 47.9363 36.9315 48.5736 36.5051C48.9642 36.2439 49.3002 35.7775 48.9491 35.3362C48.5724 34.8628 47.7575 34.7583 47.1592 34.6839ZM31.7347 3.04131C32.1067 1.85173 33.4334 1.01504 34.6838 1.17606C35.888 1.32955 36.9716 2.37692 37.2601 3.66581C37.2707 3.71293 37.2733 3.76222 37.2819 3.8099C35.3941 3.96067 33.498 4.11886 31.5968 4.28646C31.5663 3.89953 31.6133 3.43059 31.7347 3.04131ZM20.0657 4.23765C20.4365 3.04883 21.7613 2.20913 23.0143 2.37241C24.2181 2.52581 25.3008 3.57176 25.5902 4.85877C23.6963 5.05092 21.8091 5.26 19.9277 5.48318C19.8971 5.09578 19.9441 4.62665 20.0657 4.23765ZM7.45002 5.92081C7.8216 4.73274 9.14235 3.88778 10.3998 4.05632C11.5579 4.20398 12.5973 5.18099 12.9319 6.40226C11.0452 6.67953 9.17564 6.97739 7.33161 7.30338C7.27407 6.89369 7.31335 6.35928 7.45002 5.92081ZM3.38005 9.50665C4.26604 12.3629 7.12276 18.5179 8.51297 31.2762C6.34868 31.3388 4.22986 31.6901 2.16812 32.3358C1.94656 23.7249 2.30807 16.9541 3.38005 9.50665ZM2.37722 33.4776C4.40746 32.8273 6.50558 32.4774 8.6296 32.4268C8.99033 36.117 8.93086 36.5082 9.03789 37.534C4.67627 33.9674 4.31311 33.9839 2.37722 33.4776ZM11.5609 39.142C10.7812 37.6087 11.7984 28.9833 7.15116 16.1414C18.2555 14.1634 29.9546 13.1249 41.1137 11.9003C41.4294 11.8657 41.6576 11.5805 41.6231 11.2637C41.5883 10.9455 41.3043 10.7009 40.9886 10.7521C29.6599 11.9926 17.895 13.0393 6.74372 15.0386C6.09655 13.3446 8.13695 18.5983 4.43148 9.02971C7.24611 8.47602 10.1227 7.983 13.0529 7.55186C13.0155 8.23214 12.8027 8.92427 12.4441 9.54182C11.9963 9.52339 11.5334 9.73999 11.3476 10.1529L11.4069 10.0576C11.0718 10.0747 10.7998 10.3906 10.7654 10.7259C10.7309 11.0611 10.8965 11.3939 11.1377 11.6283C11.6498 12.126 12.5436 12.1869 13.0837 11.72C13.5093 11.352 13.6252 10.6878 13.4013 10.184C13.9175 9.32475 14.1982 8.353 14.2063 7.39179C17.9734 6.85738 21.8026 6.40556 25.6522 6.01439C25.5897 6.7005 25.3539 7.38991 24.9703 7.99861C24.5605 8.01855 24.1584 8.22707 23.9886 8.60459L24.0479 8.50932C23.7128 8.52643 23.4407 8.84236 23.4063 9.17756C23.3719 9.51285 23.5375 9.84561 23.7787 10.0799C24.2908 10.5777 25.1845 10.6387 25.7247 10.1716C26.1787 9.77902 26.2815 9.0488 25.993 8.53697C26.49 7.7236 26.7811 6.80716 26.8221 5.89241C30.3233 5.54705 33.83 5.24514 37.3055 4.9675C37.2402 5.48036 37.0807 5.99126 36.8346 6.46631C36.3425 6.38242 35.7891 6.5946 35.5813 7.05621L35.6406 6.96093C35.3055 6.97805 35.0335 7.29397 34.9991 7.62927C34.9646 7.96447 35.1302 8.29723 35.3714 8.53161C35.8835 9.02933 36.7772 9.09037 37.3173 8.62331C37.6905 8.30071 37.8235 7.75031 37.7013 7.27949C38.1433 6.53554 38.4073 5.70835 38.4734 4.87645C39.4853 4.79689 40.4976 4.71713 41.5021 4.64038C44.7288 15.3965 46.1415 24.4899 46.0509 33.9732C33.3055 35.2938 21.2563 37.6118 11.5609 39.142Z" fill="black"/>
</svg>
