<svg width="34" height="34" viewBox="0 0 34 34" fill="none" xmlns="http://www.w3.org/2000/svg">
<g clip-path="url(#clip0_14826_2253)">
<path d="M14.5347 14.3592C15.188 12.0569 16.6742 10.0798 18.7043 8.81237C20.7345 7.54498 23.1634 7.0779 25.5188 7.50195C27.8741 7.92601 29.9876 9.21089 31.4483 11.1067C32.9089 13.0026 33.6122 15.3739 33.4215 17.7595C33.2308 20.1452 32.1597 22.3746 30.4164 24.0144C28.6732 25.6541 26.3824 26.5869 23.9896 26.6314C21.5967 26.6759 19.2729 25.8289 17.4699 24.2551C15.6669 22.6812 14.5136 20.4931 14.2344 18.1162L14.5347 14.3592Z" fill="#F18326"/>
<path d="M3.96875 5.09998C3.96875 6.00172 4.32696 6.86652 4.96459 7.50415C5.60221 8.14177 6.46701 8.49998 7.36875 8.49998C8.27049 8.49998 9.13529 8.14177 9.77291 7.50415C10.4105 6.86652 10.7688 6.00172 10.7688 5.09998V3.96665C10.7688 3.06491 10.4105 2.20011 9.77291 1.56249C9.13529 0.924864 8.27049 0.56665 7.36875 0.56665C6.46701 0.56665 5.60221 0.924864 4.96459 1.56249C4.32696 2.20011 3.96875 3.06491 3.96875 3.96665V5.09998Z" fill="#1F4D77"/>
<path d="M11.337 14.1667V31.3367C11.3486 31.8591 11.1612 32.3664 10.8127 32.7557C10.4642 33.1451 9.98068 33.3873 9.46018 33.4333C9.1909 33.4478 8.9215 33.4072 8.66844 33.3141C8.41537 33.2209 8.18397 33.0771 7.98836 32.8915C7.79276 32.7059 7.63706 32.4823 7.5308 32.2344C7.42453 31.9866 7.36992 31.7197 7.37031 31.45C7.3707 31.7197 7.31609 31.9866 7.20983 32.2344C7.10356 32.4823 6.94787 32.7059 6.75226 32.8915C6.55666 33.0771 6.32525 33.2209 6.07219 33.3141C5.81913 33.4072 5.54972 33.4478 5.28045 33.4333C4.75994 33.3873 4.27642 33.1451 3.92791 32.7557C3.5794 32.3664 3.39198 31.8591 3.40365 31.3367V20.1167C3.40365 20.4924 3.25439 20.8527 2.98871 21.1184C2.72304 21.3841 2.3627 21.5333 1.98698 21.5333C1.80094 21.5333 1.61672 21.4967 1.44484 21.4255C1.27297 21.3543 1.11679 21.25 0.985245 21.1184C0.719568 20.8527 0.570313 20.4924 0.570312 20.1167V13.6C0.570313 12.2474 1.10763 10.9502 2.06407 9.99376C3.0205 9.03732 4.31771 8.5 5.67031 8.5H9.07938C9.97164 8.49996 10.8439 8.76406 11.5864 9.25899C12.3288 9.75393 12.908 10.4576 13.2512 11.2812L14.7812 14.9515C14.8242 15.0546 14.8968 15.1427 14.9897 15.2048C15.0827 15.2668 15.1919 15.2999 15.3036 15.3H17.287C17.6627 15.3 18.023 15.4493 18.2887 15.7149C18.5544 15.9806 18.7036 16.3409 18.7036 16.7167C18.7036 17.0924 18.5544 17.4527 18.2887 17.7184C18.023 17.9841 17.6627 18.1333 17.287 18.1333H14.5318C14.0882 18.1334 13.6543 18.0033 13.284 17.7591C12.9136 17.515 12.623 17.1675 12.4482 16.7597L11.337 14.1667Z" fill="#1F4D77"/>
<path d="M8.49734 10.7666L9.05948 15.0387C9.07285 15.1454 9.05617 15.2537 9.01132 15.3514C8.96646 15.4491 8.89522 15.5324 8.80561 15.5918L7.68588 16.3364C7.59042 16.3996 7.47848 16.4333 7.36401 16.4333C7.24954 16.4333 7.1376 16.3996 7.04214 16.3364L5.92241 15.5918C5.8328 15.5324 5.76156 15.4491 5.71671 15.3514C5.67186 15.2537 5.65518 15.1454 5.66854 15.0387L6.23068 10.7666H8.49734Z" fill="#E1C53A"/>
<path d="M9.06406 8.5L8.4974 10.7667H6.23073L5.66406 8.5H9.06406Z" fill="#FBDD4D"/>
<path d="M26.0646 21.5334V22.6667C26.0646 22.817 26.0049 22.9611 25.8986 23.0674C25.7923 23.1737 25.6482 23.2334 25.4979 23.2334H22.0979C21.9476 23.2334 21.8035 23.1737 21.6972 23.0674C21.591 22.9611 21.5312 22.817 21.5312 22.6667V21.5334C21.5312 21.3831 21.591 21.239 21.6972 21.1327C21.8035 21.0264 21.9476 20.9667 22.0979 20.9667H22.6646V17.5667H22.0979C21.9476 17.5667 21.8035 17.507 21.6972 17.4007C21.591 17.2945 21.5312 17.1503 21.5312 17V15.8667C21.5312 15.7164 21.591 15.5723 21.6972 15.466C21.8035 15.3598 21.9476 15.3 22.0979 15.3H24.3646C24.5149 15.3 24.659 15.3598 24.7653 15.466C24.8715 15.5723 24.9313 15.7164 24.9313 15.8667V20.9667H25.4979C25.6482 20.9667 25.7923 21.0264 25.8986 21.1327C26.0049 21.239 26.0646 21.3831 26.0646 21.5334Z" fill="white"/>
<path d="M24.3641 10.7666H23.2307C22.9178 10.7666 22.6641 11.0203 22.6641 11.3333V12.4666C22.6641 12.7796 22.9178 13.0333 23.2307 13.0333H24.3641C24.677 13.0333 24.9307 12.7796 24.9307 12.4666V11.3333C24.9307 11.0203 24.677 10.7666 24.3641 10.7666Z" fill="white"/>
<path d="M7.93021 22.6668V32.8384C7.56535 32.4687 7.36163 31.9696 7.36354 31.4501C7.36545 31.9696 7.16173 32.4687 6.79688 32.8384V22.6668C6.79688 22.5165 6.85658 22.3723 6.96285 22.2661C7.06912 22.1598 7.21325 22.1001 7.36354 22.1001C7.51383 22.1001 7.65796 22.1598 7.76424 22.2661C7.87051 22.3723 7.93021 22.5165 7.93021 22.6668Z" fill="#183E5B"/>
<path d="M3.39896 13.6001V20.1168C3.39902 20.4434 3.28625 20.7599 3.07973 21.0129C2.8732 21.2659 2.58561 21.4398 2.26562 21.5051V13.6001C2.26562 13.4498 2.32533 13.3057 2.4316 13.1994C2.53787 13.0931 2.682 13.0334 2.83229 13.0334C2.98258 13.0334 3.12671 13.0931 3.23299 13.1994C3.33926 13.3057 3.39896 13.4498 3.39896 13.6001Z" fill="#183E5B"/>
</g>
<defs>
<clipPath id="clip0_14826_2253">
<rect width="34" height="34" fill="white"/>
</clipPath>
</defs>
</svg>
